<?xml version="1.0" encoding="UTF-8"?>
<svg id="Layer_2" xmlns="http://www.w3.org/2000/svg" viewBox="0 0 320.48 262.55">
  <defs>
    <style>
      .cls-1 {
        fill: none;
        stroke: #000;
        stroke-miterlimit: 10;
        stroke-width: 3px;
      }
    </style>
  </defs>
  <g id="Layer_1-2" data-name="Layer_1">
    <g>
      <path d="M96.45,5.23c24.81,0,45,20.19,45,45s-20.19,45-45,45-45-20.19-45-45S71.64,5.23,96.45,5.23M96.45,2.23c-26.51,0-48,21.49-48,48s21.49,48,48,48,48-21.49,48-48S122.96,2.23,96.45,2.23h0Z"/>
      <path d="M241.45,16.23c27.02,0,49,21.98,49,49s-21.98,49-49,49-49-21.98-49-49,21.98-49,49-49M241.45,13.23c-28.72,0-52,23.28-52,52s23.28,52,52,52,52-23.28,52-52-23.28-52-52-52h0Z"/>
      <polyline class="cls-1" points="96.45 98.23 96.45 202.61 134.95 261.73"/>
      <line class="cls-1" x1="96.45" y1="202.61" x2="61.16" y2="261.73"/>
      <polyline class="cls-1" points="241.45 117.23 241.45 202.61 270.75 261.73"/>
      <line class="cls-1" x1="241.45" y1="202.61" x2="218.7" y2="261.73"/>
      <line class="cls-1" x1="96.45" y1="134.12" x2="170.75" y2="117.23"/>
      <line class="cls-1" x1="241.45" y1="149.19" x2="170.75" y2="125.68"/>
      <polyline class="cls-1" points="241.45 165.63 170.75 134.12 96.45 143.71"/>
      <polyline class="cls-1" points=".95 80.73 96.45 2.23 170.75 72.48"/>
      <polyline class="cls-1" points="149.92 80.23 245.27 2 319.45 72.01"/>
    </g>
  </g>
</svg>